<svg width="30" height="30" viewBox="0 0 30 30" fill="none" xmlns="http://www.w3.org/2000/svg">
<path d="M27.9165 27.1834H27.8332C27.8523 2.26881 27.8319 29.033 27.8415 14.4876C27.8415 14.3792 27.7998 14.2709 27.7207 14.1917L26.504 12.9751C26.4422 12.9137 26.3626 12.8734 26.2766 12.8599C26.1905 12.8464 26.1024 12.8605 26.0248 12.9001V11.778H26.1232C26.2337 11.778 26.3397 11.7341 26.4178 11.6559C26.4959 11.5778 26.5398 11.4718 26.5398 11.3613C26.5398 11.2508 26.4959 11.1448 26.4178 11.0667C26.3397 10.9885 26.2337 10.9446 26.1232 10.9446H26.0378C26.4169 9.57507 25.3623 8.41048 24.1919 7.61715V6.49423C24.1919 6.38372 24.148 6.27774 24.0699 6.1996C23.9917 6.12146 23.8858 6.07757 23.7753 6.07757C23.6647 6.07757 23.5588 6.12146 23.4806 6.1996C23.4025 6.27774 23.3586 6.38372 23.3586 6.49423V7.62048L23.3582 7.6209C22.189 8.40007 21.1365 9.58965 21.5123 10.9446H21.4278C21.3172 10.9446 21.2113 10.9885 21.1331 11.0667C21.055 11.1448 21.0111 11.2508 21.0111 11.3613C21.0111 11.4718 21.055 11.5778 21.1331 11.6559C21.2113 11.7341 21.3172 11.778 21.4278 11.778H21.529V12.9001C21.3707 12.8209 21.1748 12.8459 21.0457 12.9751L20.4623 13.5584V5.51673H20.7915C21.0207 5.51256 21.2082 5.32506 21.204 5.0959C21.2041 4.99043 21.1634 4.88901 21.0904 4.8129C21.0173 4.73678 20.9177 4.69187 20.8123 4.68756V3.4834C20.8123 2.65048 20.1457 1.9834 19.3165 1.9834C18.4915 1.9834 17.8207 2.6584 17.8207 3.4834V4.6959H17.754C17.5248 4.6959 17.3373 4.8834 17.3373 5.11673C17.3415 5.3459 17.5248 5.52923 17.754 5.52923H18.0832V9.32506L17.5748 8.81673C17.5363 8.7781 17.4905 8.74746 17.4401 8.72655C17.3897 8.70564 17.3357 8.69488 17.2811 8.69488C17.2265 8.69488 17.1725 8.70564 17.1221 8.72655C17.0717 8.74746 17.0259 8.7781 16.9873 8.81673L16.0665 9.74173L15.1415 8.81673C15.103 8.7781 15.0572 8.74746 15.0068 8.72655C14.9564 8.70564 14.9023 8.69488 14.8478 8.69488C14.7932 8.69488 14.7391 8.70564 14.6887 8.72655C14.6383 8.74746 14.5926 8.7781 14.554 8.81673L13.629 9.73757L12.7082 8.81673C12.5457 8.65423 12.279 8.65423 12.1165 8.81673L11.6123 9.3209V5.51673H11.9373C12.1707 5.51256 12.354 5.32506 12.354 5.0959C12.3541 4.99043 12.3134 4.88901 12.2404 4.8129C12.1673 4.73678 12.0677 4.69187 11.9623 4.68756V3.4834C11.9623 2.65048 11.2957 1.9834 10.4665 1.9834C9.6415 1.9834 8.97067 2.6584 8.97067 3.4834V4.6959H8.904C8.67067 4.6959 8.48734 4.8834 8.48734 5.11673C8.48734 5.3459 8.67484 5.52923 8.904 5.52923H9.229V13.4084L8.79567 12.9751C8.73389 12.9137 8.65429 12.8734 8.56824 12.8599C8.48219 12.8464 8.39409 12.8605 8.3165 12.9001V11.778H8.4165C8.52701 11.778 8.63299 11.7341 8.71113 11.6559C8.78927 11.5778 8.83317 11.4718 8.83317 11.3613C8.83317 11.2508 8.78927 11.1448 8.71113 11.0667C8.63299 10.9885 8.52701 10.9446 8.4165 10.9446H8.329C8.71984 9.53673 7.63859 8.46132 6.48734 7.61673C6.48681 7.61628 6.48625 7.61586 6.48567 7.61548V6.49465C6.48567 6.38414 6.44177 6.27816 6.36363 6.20002C6.28549 6.12188 6.17951 6.07798 6.069 6.07798C5.9585 6.07798 5.85252 6.12188 5.77438 6.20002C5.69624 6.27816 5.65234 6.38414 5.65234 6.49465V7.61798C4.48234 8.43798 3.42442 9.56132 3.80775 10.9446H3.7215C3.611 10.9446 3.50502 10.9885 3.42688 11.0667C3.34874 11.1448 3.30484 11.2508 3.30484 11.3613C3.30484 11.4718 3.34874 11.5778 3.42688 11.6559C3.50502 11.7341 3.611 11.778 3.7215 11.778H3.82067V12.9001C3.7431 12.8604 3.65498 12.8463 3.56892 12.8598C3.48285 12.8733 3.40325 12.9136 3.3415 12.9751L2.12484 14.1917C2.04567 14.2709 1.99984 14.3792 1.99984 14.4876V27.1917C1.80817 27.2292 1.6665 27.4001 1.6665 27.6001C1.6665 27.8292 1.854 28.0167 2.08317 28.0167H27.9165C28.1457 28.0167 28.3332 27.8292 28.3332 27.6001C28.3332 27.3709 28.1457 27.1834 27.9165 27.1834ZM2.83317 14.6584L3.63317 13.8584L4.43734 14.6584V15.8959H2.83317V14.6584ZM20.5415 14.6584L21.3415 13.8584L22.1415 14.6584V15.8959H20.5415V14.6584ZM18.1207 21.1209C18.0955 21.0355 18.0433 20.9605 17.972 20.9071C17.9006 20.8538 17.8139 20.825 17.7248 20.8251H11.9707C11.779 20.8251 11.6248 20.9501 11.5748 21.1209C11.5398 21.2001 11.5582 20.8376 11.554 27.1834H10.0623V18.3167H19.629V27.1834H18.1415C18.1332 20.8846 18.1607 21.2409 18.1207 21.1209ZM26.9998 16.7292V18.2376H20.4623V16.7292H26.9998ZM14.0457 16.2459L14.8457 15.4459L15.6457 16.2459V17.4834H14.0457V16.2459ZM18.0832 15.0709L17.5748 14.5626C17.5363 14.5239 17.4905 14.4933 17.4401 14.4724C17.3897 14.4515 17.3357 14.4407 17.2811 14.4407C17.2265 14.4407 17.1725 14.4515 17.1221 14.4724C17.0717 14.4933 17.0259 14.5239 16.9873 14.5626L16.0665 15.4876L15.1415 14.5626C15.103 14.5239 15.0572 14.4933 15.0068 14.4724C14.9564 14.4515 14.9023 14.4407 14.8478 14.4407C14.7932 14.4407 14.7391 14.4515 14.6887 14.4724C14.6383 14.4933 14.5926 14.5239 14.554 14.5626L13.629 15.4834L12.7082 14.5626C12.5457 14.4001 12.279 14.4001 12.1165 14.5626L11.6123 15.0667V13.9251H18.0832V15.0709ZM9.229 16.7292V18.2376H2.83317V16.7292H9.229ZM27.0082 15.8959H25.4082V14.6584L26.2082 13.8584L27.0082 14.6584V15.8959ZM25.1915 13.7001L24.9957 13.9001L24.0707 12.9751C23.9082 12.8126 23.6457 12.8126 23.479 12.9751L22.5582 13.8959L22.3623 13.7001V11.7792H25.1915V13.7001ZM19.629 5.5209V17.4834H18.9165V5.52506L19.629 5.5209ZM18.0832 12.5709V13.0917H11.6123V12.5709H18.0832ZM15.6457 11.7376H14.0457V10.5001L14.8457 9.70007L15.6457 10.5001V11.7376ZM10.779 5.5209V17.4834H10.0623V5.52506L10.779 5.5209ZM9.229 15.8959H7.704V14.6584L8.504 13.8584L9.229 14.5834V15.8959ZM7.48317 13.7001L7.28734 13.9001L6.36234 12.9751C6.32379 12.9364 6.278 12.9058 6.2276 12.8849C6.17719 12.864 6.12316 12.8532 6.06859 12.8532C6.01402 12.8532 5.95998 12.864 5.90958 12.8849C5.85917 12.9058 5.81338 12.9364 5.77484 12.9751L4.854 13.9001L4.654 13.7001V11.7792H7.48317V13.7001ZM2.83317 21.1209H9.229V27.1834H7.6915V24.9084C7.6915 24.2584 7.42067 23.6292 6.94567 23.1792L6.24984 22.5251C6.08734 22.3751 5.83734 22.3751 5.679 22.5251L4.979 23.1792C4.74408 23.4019 4.55684 23.67 4.42864 23.9673C4.30043 24.2645 4.23393 24.5847 4.23317 24.9084V27.1834H2.83317V21.1209ZM25.504 27.1834V24.9084C25.504 24.2584 25.2332 23.6292 24.7582 23.1792L24.0623 22.5251C23.8998 22.3751 23.6498 22.3751 23.4915 22.5251L22.7915 23.1792C22.5566 23.4019 22.3693 23.67 22.2411 23.9673C22.1129 24.2645 22.0464 24.5847 22.0457 24.9084V27.1834H20.4623V21.1209H26.9998V27.1834H25.504Z" fill="#4C86EE"/>
</svg>
